<svg xmlns="http://www.w3.org/2000/svg" xmlns:xlink="http://www.w3.org/1999/xlink" width="500" zoomAndPan="magnify" viewBox="0 0 375 374.999991" height="500" preserveAspectRatio="xMidYMid meet" version="1.0"><defs><g/><clipPath id="904489e30e"><path d="M 46.890625 64.03125 L 328.140625 64.03125 L 328.140625 238.03125 L 46.890625 238.03125 Z M 46.890625 64.03125 " clip-rule="nonzero"/></clipPath></defs><rect x="-37.5" width="450" fill="#ffffff" y="-37.499999" height="449.999989" fill-opacity="1"/><rect x="-37.5" width="450" fill="#22002d" y="-37.499999" height="449.999989" fill-opacity="1"/><g fill="#ffffff" fill-opacity="1"><g transform="translate(129.687827, 298.879345)"><g><path d="M 0.6875 -27.578125 L 26.359375 -27.578125 L 26.359375 -21.328125 L 16.9375 -21.328125 L 16.9375 2.03125 L 10.640625 2.03125 L 10.640625 -21.328125 L 0.6875 -21.328125 Z M 0.6875 -27.578125 "/></g></g></g><g fill="#ffffff" fill-opacity="1"><g transform="translate(156.651965, 298.879345)"><g><path d="M 16.328125 2.03125 L 10.3125 2.03125 C 9.425781 2.03125 8.457031 1.894531 7.40625 1.625 C 6.363281 1.351562 5.394531 0.898438 4.5 0.265625 C 3.613281 -0.367188 2.878906 -1.203125 2.296875 -2.234375 C 1.710938 -3.265625 1.421875 -4.535156 1.421875 -6.046875 L 1.421875 -18.765625 C 1.421875 -20.097656 1.675781 -21.304688 2.1875 -22.390625 C 2.707031 -23.472656 3.40625 -24.398438 4.28125 -25.171875 C 5.164062 -25.941406 6.1875 -26.535156 7.34375 -26.953125 C 8.507812 -27.367188 9.742188 -27.578125 11.046875 -27.578125 L 15.1875 -27.578125 C 16.519531 -27.578125 17.753906 -27.367188 18.890625 -26.953125 C 20.023438 -26.535156 21.003906 -25.941406 21.828125 -25.171875 C 22.660156 -24.398438 23.304688 -23.476562 23.765625 -22.40625 C 24.222656 -21.332031 24.453125 -20.132812 24.453125 -18.8125 L 24.453125 -5.9375 C 24.453125 -4.738281 24.203125 -3.644531 23.703125 -2.65625 C 23.203125 -1.664062 22.550781 -0.828125 21.75 -0.140625 C 20.957031 0.546875 20.078125 1.078125 19.109375 1.453125 C 18.148438 1.835938 17.222656 2.03125 16.328125 2.03125 Z M 14.140625 -2.84375 C 15.441406 -2.84375 16.484375 -3.1875 17.265625 -3.875 C 18.046875 -4.570312 18.4375 -5.566406 18.4375 -6.859375 L 18.4375 -18.359375 C 18.4375 -18.878906 18.347656 -19.367188 18.171875 -19.828125 C 18.003906 -20.285156 17.742188 -20.691406 17.390625 -21.046875 C 17.035156 -21.398438 16.59375 -21.675781 16.0625 -21.875 C 15.539062 -22.082031 14.910156 -22.1875 14.171875 -22.1875 L 11.90625 -22.1875 C 11.175781 -22.1875 10.53125 -22.078125 9.96875 -21.859375 C 9.414062 -21.640625 8.945312 -21.351562 8.5625 -21 C 8.1875 -20.644531 7.90625 -20.238281 7.71875 -19.78125 C 7.53125 -19.320312 7.4375 -18.835938 7.4375 -18.328125 L 7.4375 -6.859375 C 7.4375 -5.753906 7.742188 -4.804688 8.359375 -4.015625 C 8.984375 -3.234375 10.054688 -2.84375 11.578125 -2.84375 Z M 14.140625 -2.84375 "/></g></g></g><g fill="#ffffff" fill-opacity="1"><g transform="translate(182.844535, 298.879345)"><g/></g></g><g fill="#ffffff" fill-opacity="1"><g transform="translate(193.159137, 298.879345)"><g><path d="M 1.671875 -27.546875 L 13.9375 -27.546875 C 15.070312 -27.546875 16.25 -27.410156 17.46875 -27.140625 C 18.6875 -26.867188 19.800781 -26.375 20.8125 -25.65625 C 21.832031 -24.9375 22.664062 -23.953125 23.3125 -22.703125 C 23.96875 -21.460938 24.28125 -19.867188 24.25 -17.921875 L 24.21875 -8.125 C 24.21875 -6.332031 23.867188 -4.789062 23.171875 -3.5 C 22.484375 -2.21875 21.609375 -1.171875 20.546875 -0.359375 C 19.492188 0.453125 18.320312 1.050781 17.03125 1.4375 C 15.75 1.832031 14.488281 2.03125 13.25 2.03125 L 1.671875 2.03125 Z M 19.09375 -16.40625 C 19.09375 -18.25 18.640625 -19.597656 17.734375 -20.453125 C 16.828125 -21.304688 15.25 -21.734375 13 -21.734375 L 8.203125 -21.734375 L 8.203125 -4.390625 L 13.359375 -4.390625 C 14.097656 -4.390625 14.8125 -4.460938 15.5 -4.609375 C 16.1875 -4.753906 16.796875 -5.003906 17.328125 -5.359375 C 17.859375 -5.710938 18.285156 -6.1875 18.609375 -6.78125 C 18.929688 -7.375 19.09375 -8.132812 19.09375 -9.0625 Z M 19.09375 -16.40625 "/></g></g></g><g fill="#ffffff" fill-opacity="1"><g transform="translate(219.10806, 298.879345)"><g><path d="M 16.328125 2.03125 L 10.3125 2.03125 C 9.425781 2.03125 8.457031 1.894531 7.40625 1.625 C 6.363281 1.351562 5.394531 0.898438 4.5 0.265625 C 3.613281 -0.367188 2.878906 -1.203125 2.296875 -2.234375 C 1.710938 -3.265625 1.421875 -4.535156 1.421875 -6.046875 L 1.421875 -18.765625 C 1.421875 -20.097656 1.675781 -21.304688 2.1875 -22.390625 C 2.707031 -23.472656 3.40625 -24.398438 4.28125 -25.171875 C 5.164062 -25.941406 6.1875 -26.535156 7.34375 -26.953125 C 8.507812 -27.367188 9.742188 -27.578125 11.046875 -27.578125 L 15.1875 -27.578125 C 16.519531 -27.578125 17.753906 -27.367188 18.890625 -26.953125 C 20.023438 -26.535156 21.003906 -25.941406 21.828125 -25.171875 C 22.660156 -24.398438 23.304688 -23.476562 23.765625 -22.40625 C 24.222656 -21.332031 24.453125 -20.132812 24.453125 -18.8125 L 24.453125 -5.9375 C 24.453125 -4.738281 24.203125 -3.644531 23.703125 -2.65625 C 23.203125 -1.664062 22.550781 -0.828125 21.75 -0.140625 C 20.957031 0.546875 20.078125 1.078125 19.109375 1.453125 C 18.148438 1.835938 17.222656 2.03125 16.328125 2.03125 Z M 14.140625 -2.84375 C 15.441406 -2.84375 16.484375 -3.1875 17.265625 -3.875 C 18.046875 -4.570312 18.4375 -5.566406 18.4375 -6.859375 L 18.4375 -18.359375 C 18.4375 -18.878906 18.347656 -19.367188 18.171875 -19.828125 C 18.003906 -20.285156 17.742188 -20.691406 17.390625 -21.046875 C 17.035156 -21.398438 16.59375 -21.675781 16.0625 -21.875 C 15.539062 -22.082031 14.910156 -22.1875 14.171875 -22.1875 L 11.90625 -22.1875 C 11.175781 -22.1875 10.53125 -22.078125 9.96875 -21.859375 C 9.414062 -21.640625 8.945312 -21.351562 8.5625 -21 C 8.1875 -20.644531 7.90625 -20.238281 7.71875 -19.78125 C 7.53125 -19.320312 7.4375 -18.835938 7.4375 -18.328125 L 7.4375 -6.859375 C 7.4375 -5.753906 7.742188 -4.804688 8.359375 -4.015625 C 8.984375 -3.234375 10.054688 -2.84375 11.578125 -2.84375 Z M 14.140625 -2.84375 "/></g></g></g><g clip-path="url(#904489e30e)"><path fill="#ffffff" d="M 240.890625 238.382812 L 119.164062 238.382812 L 119.164062 79.71875 L 46.933594 79.71875 L 46.933594 64.03125 L 134.902344 64.03125 L 134.902344 222.644531 L 240.949219 222.644531 C 280.328125 222.644531 312.4375 190.589844 312.4375 151.152344 C 312.4375 111.769531 280.386719 79.660156 240.949219 79.660156 L 174.171875 79.660156 L 174.171875 175.472656 L 239.355469 175.472656 C 252.769531 175.472656 263.679688 164.5625 263.679688 151.152344 C 263.679688 137.738281 252.769531 126.828125 239.355469 126.828125 L 202.417969 126.828125 L 202.417969 111.144531 L 239.355469 111.144531 C 261.460938 111.144531 279.421875 129.101562 279.421875 151.207031 C 279.421875 173.316406 261.460938 191.273438 239.355469 191.273438 L 158.429688 191.273438 L 158.429688 64.03125 L 240.890625 64.03125 C 288.96875 64.03125 328.066406 103.132812 328.066406 151.207031 C 328.066406 199.285156 288.96875 238.382812 240.890625 238.382812 Z M 240.890625 238.382812 " fill-opacity="1" fill-rule="nonzero"/></g></svg>